<svg id="Capa_1" data-name="Capa 1" xmlns="http://www.w3.org/2000/svg" viewBox="0 0 432.4 432.4"><defs><style>.cls-1{fill:#fff;}</style></defs><title>add-image</title><path class="cls-1" d="M242.15,171.84a99.24,99.24,0,0,1,2.17-20.53h-12.8l-11.58-32.44a11.45,11.45,0,0,0-10.79-7.57H99.54a11.41,11.41,0,0,0-10.75,7.57L77.17,151.31H28.58A28.58,28.58,0,0,0,0,179.9V342.82A28.57,28.57,0,0,0,28.58,371.4H280.11a28.57,28.57,0,0,0,28.58-28.58V265.13A98.77,98.77,0,0,1,242.15,171.84Zm-87.8,142.4a57.17,57.17,0,1,1,57.16-57.17A57.16,57.16,0,0,1,154.35,314.24Z"/><path class="cls-1" d="M154.35,222.77a34.31,34.31,0,1,0,24.25,10A34.34,34.34,0,0,0,154.35,222.77Z"/><path class="cls-1" d="M405.61,107.16a91.46,91.46,0,1,0,26.79,64.68A91.16,91.16,0,0,0,405.61,107.16ZM380.14,169v9.41H347.47V211H334.4V178.37H301.74V165.31H334.4V132.64h13.07v32.67h32.67Z"/></svg>