<svg width="28" height="27" viewBox="0 0 28 27" fill="none" xmlns="http://www.w3.org/2000/svg">
<path d="M15.125 2.5H2.75V22.5H19.25V6.25H15.125V2.5ZM2.75 0H16.5L22 5V22.5C22 23.163 21.7103 23.7989 21.1945 24.2678C20.6788 24.7366 19.9793 25 19.25 25H2.75C2.02065 25 1.32118 24.7366 0.805456 24.2678C0.289731 23.7989 0 23.163 0 22.5V2.5C0 1.83696 0.289731 1.20107 0.805456 0.732233C1.32118 0.263392 2.02065 0 2.75 0ZM5.5 8.5H11H16.5V13.75H5.5V8.5ZM5.5 16.25H16.5V18.75H5.5V16.25Z" fill="#1DBFF2"/>
<circle cx="19" cy="18" r="8.5" fill="#1DBFF2" stroke="white"/>
<path d="M19.612 19.064H23.26V17.84H19.612V14.192H18.388V17.84H14.74V19.064H18.388V22.712H19.612V19.064Z" fill="white"/>
</svg>
