<svg width="15" height="14" viewBox="0 0 15 14" fill="none" xmlns="http://www.w3.org/2000/svg">
<path d="M12.1996 1.4H10.7921V0.7C10.7921 0.514348 10.718 0.336301 10.586 0.205025C10.454 0.0737498 10.275 0 10.0884 0C9.90174 0 9.72274 0.0737498 9.59076 0.205025C9.45878 0.336301 9.38463 0.514348 9.38463 0.7V1.4H5.16211V0.7C5.16211 0.514348 5.08797 0.336301 4.95599 0.205025C4.82401 0.0737498 4.64501 0 4.45836 0C4.27171 0 4.09271 0.0737498 3.96073 0.205025C3.82875 0.336301 3.75461 0.514348 3.75461 0.7V1.4H2.3471C1.78716 1.4 1.25015 1.62125 0.854214 2.01508C0.458276 2.4089 0.23584 2.94305 0.23584 3.5V11.9C0.23584 12.457 0.458276 12.9911 0.854214 13.3849C1.25015 13.7788 1.78716 14 2.3471 14H12.1996C12.7596 14 13.2966 13.7788 13.6925 13.3849C14.0885 12.9911 14.3109 12.457 14.3109 11.9V3.5C14.3109 2.94305 14.0885 2.4089 13.6925 2.01508C13.2966 1.62125 12.7596 1.4 12.1996 1.4ZM12.9034 11.9C12.9034 12.0857 12.8293 12.2637 12.6973 12.395C12.5653 12.5263 12.3863 12.6 12.1996 12.6H2.3471C2.16045 12.6 1.98145 12.5263 1.84947 12.395C1.71749 12.2637 1.64335 12.0857 1.64335 11.9V7H12.9034V11.9ZM12.9034 5.6H1.64335V3.5C1.64335 3.31435 1.71749 3.1363 1.84947 3.00503C1.98145 2.87375 2.16045 2.8 2.3471 2.8H3.75461V3.5C3.75461 3.68565 3.82875 3.8637 3.96073 3.99497C4.09271 4.12625 4.27171 4.2 4.45836 4.2C4.64501 4.2 4.82401 4.12625 4.95599 3.99497C5.08797 3.8637 5.16211 3.68565 5.16211 3.5V2.8H9.38463V3.5C9.38463 3.68565 9.45878 3.8637 9.59076 3.99497C9.72274 4.12625 9.90174 4.2 10.0884 4.2C10.275 4.2 10.454 4.12625 10.586 3.99497C10.718 3.8637 10.7921 3.68565 10.7921 3.5V2.8H12.1996C12.3863 2.8 12.5653 2.87375 12.6973 3.00503C12.8293 3.1363 12.9034 3.31435 12.9034 3.5V5.6Z" fill="#EC6B6B"/>
</svg>
