<svg width="96" height="79" viewBox="0 0 96 79" fill="none" xmlns="http://www.w3.org/2000/svg">
<path d="M47.9208 55.877C39.7807 55.877 33.9407 54.6131 30.5543 52.2369C29.2764 51.3143 25.8517 48.875 25.8517 39.4968C25.8517 30.1187 29.2637 27.6794 30.5543 26.7694C33.9407 24.3553 39.7807 23.1293 47.9208 23.1293C41.4631 23.1293 36.2281 17.9517 36.2281 11.5647C36.2281 5.17768 41.4631 0 47.9208 0C19.8584 0 0 8.84729 0 39.4968C0 70.1464 19.8584 78.9937 47.9208 78.9937C52.1881 79.1332 56.193 76.9613 58.3684 73.3277C60.5439 69.694 60.5439 65.1766 58.3684 61.543C56.193 57.9093 52.1881 55.7374 47.9208 55.877Z" fill="#EC6B6B"/>
<path d="M47.7685 0C41.2689 0 36 5.17768 36 11.5647C36 17.9517 41.2689 23.1293 47.7685 23.1293C55.9614 23.1293 61.8392 24.3932 65.2476 26.7694C66.5338 27.6794 69.9807 30.1187 69.9807 39.4968C69.9807 48.875 66.5466 51.3143 65.2476 52.2369C61.8392 54.651 55.9614 55.877 47.7685 55.877C52.0634 55.7374 56.0943 57.9093 58.2838 61.543C60.4734 65.1766 60.4734 69.694 58.2838 73.3277C56.0943 76.9613 52.0634 79.1332 47.7685 78.9937C76.0643 78.9937 96 70.1464 96 39.4968C96 8.84729 76.0129 0 47.7685 0Z" fill="#5CD4D4"/>
</svg>
