<svg width="89" height="20" viewBox="0 0 89 20" fill="none" xmlns="http://www.w3.org/2000/svg">
<g clip-path="url(#clip0)">
<path d="M0 8.77289C0 3.30622 2.65672 -0.000444882 7.15985 -0.000444882C9.13501 -0.0978504 11.061 0.636773 12.4733 2.02622C13.1733 2.74398 13.5929 3.69043 13.6555 4.69289C13.7322 5.269 13.5571 5.85028 13.1753 6.28723C12.7934 6.72418 12.2421 6.97416 11.663 6.97289C10.8816 6.92668 10.1569 6.54841 9.67045 5.93289C9.13999 5.25486 8.3487 4.83352 7.49194 4.77289C5.77836 4.77289 4.83522 6.35956 4.83522 9.10622V9.94622C4.83522 12.9862 5.77836 14.5996 7.49194 14.5996C8.36872 14.5442 9.18258 14.1237 9.73687 13.4396C10.2038 12.8196 10.9168 12.435 11.6896 12.3862C12.257 12.4038 12.7904 12.6619 13.1575 13.0965C13.5246 13.5311 13.6911 14.1015 13.6157 14.6662C13.5579 15.9766 12.9011 17.1869 11.8357 17.9462C10.487 18.9529 8.83986 19.4743 7.15985 19.4262C2.5106 19.3862 0 16.0796 0 10.2662V8.77289Z" fill="#EC6B6B"/>
<path d="M16.7637 8.74667C16.7637 3.26667 19.4204 0 24.0298 0C28.6392 0 31.2693 3.28 31.2693 8.74667V10.6667C31.2693 16.1067 28.6126 19.36 24.0298 19.36C19.447 19.36 16.7637 16.12 16.7637 10.6667V8.74667ZM21.5723 10.6667C21.5723 13.3333 22.4623 14.8 24.0298 14.8C25.5973 14.8 26.474 13.3333 26.474 10.6667V8.70667C26.474 6.04 25.584 4.58667 24.0298 4.58667C22.4756 4.58667 21.5723 6.08 21.5723 8.70667V10.6667Z" fill="#EC6B6B"/>
<path d="M36.2378 12.88C36.9477 12.9192 37.6187 13.218 38.1241 13.72C38.9488 14.4637 39.9845 14.9299 41.0863 15.0533C42.4147 15.0533 43.0523 14.6 43.0523 13.72C43.0523 12.84 42.5077 12.44 40.8738 12.08L38.9875 11.6666C36.2526 11.3322 34.2799 8.87331 34.5375 6.11998C34.5375 2.33331 36.9684 -1.91014e-05 40.8871 -1.91014e-05C42.865 -0.0988657 44.7932 0.641437 46.2005 2.03998C46.7798 2.64286 47.1118 3.44257 47.1304 4.27998C47.1789 4.79493 47.0093 5.30661 46.663 5.68969C46.3168 6.07277 45.8258 6.29187 45.3105 6.29331C44.6517 6.22748 44.034 5.94099 43.5571 5.47998C42.8397 4.79197 41.8923 4.39735 40.9004 4.37331C39.8775 4.37331 39.2665 4.86665 39.2665 5.70665C39.2665 6.54665 39.8643 7.03998 41.2989 7.37331L43.2383 7.74665C45.925 8.00735 47.9095 10.3787 47.7016 13.08C47.7016 16.9466 45.0448 19.4666 40.8074 19.4666C38.7584 19.5543 36.7657 18.7812 35.308 17.3333C34.7631 16.7543 34.4467 15.996 34.418 15.2C34.3392 14.6477 34.4892 14.0872 34.833 13.6489C35.1769 13.2106 35.6845 12.9327 36.2378 12.88Z" fill="#5CD4D4"/>
<path d="M50.7432 8.74667C50.7432 3.26667 53.3999 0 57.996 0C62.5921 0 65.2488 3.28 65.2488 8.74667V10.6667C65.2488 16.1067 62.5921 19.36 57.996 19.36C53.3999 19.36 50.7432 16.12 50.7432 10.6667V8.74667ZM55.5385 10.6667C55.5385 13.3333 56.4285 14.8 57.996 14.8C59.5635 14.8 60.4402 13.3333 60.4402 10.6667V8.70667C60.4402 6.04 59.5502 4.58667 57.996 4.58667C56.4418 4.58667 55.5385 6.08 55.5385 8.70667V10.6667Z" fill="#5CD4D4"/>
<path d="M77.7884 0.17334C79.3559 0.17334 80.2326 1.29334 80.2326 3.36001V11.9067C80.2326 16.7733 77.9478 19.3867 73.7369 19.3867C71.9809 19.5079 70.2652 18.8211 69.0744 17.52C68.5368 16.8274 68.2509 15.9713 68.2641 15.0933C68.2641 13.6267 69.0877 12.6933 70.2434 12.6933C70.9255 12.7202 71.5676 13.0232 72.0234 13.5333C72.4941 14.1349 73.1906 14.5158 73.9495 14.5867C75.0254 14.5867 75.4904 13.92 75.4904 11.92V3.36001C75.424 1.33334 76.2475 0.17334 77.7884 0.17334Z" fill="#5CD4D4"/>
<path d="M85.0151 15.6368V3.04305C85.0151 1.14608 85.7216 0 87.0132 0C88.3048 0 89.0002 1.09339 89.0002 3.04305V15.6368C89.0002 17.5864 88.3048 18.6667 87.0353 18.6667C85.7658 18.6667 85.0151 17.6128 85.0151 15.6368Z" fill="#5CD4D4"/>
</g>
<defs>
<clipPath id="clip0">
<rect width="89" height="20" fill="white"/>
</clipPath>
</defs>
</svg>
