<svg width="15" height="14" viewBox="0 0 15 14" fill="none" xmlns="http://www.w3.org/2000/svg">
<path d="M7.61322 13.9991C7.49657 13.9991 7.3847 13.953 7.30222 13.871C7.21973 13.789 7.1734 13.6777 7.1734 13.5617V6.9997H0.575985C0.475951 6.99958 0.378949 6.96553 0.300982 6.9032C0.223016 6.84086 0.168743 6.75395 0.147119 6.65681C0.125494 6.55966 0.13781 6.45809 0.182034 6.36884C0.226257 6.2796 0.299747 6.20801 0.390378 6.1659L13.5852 0.0414001C13.6671 0.00320728 13.7588 -0.00895761 13.8479 0.00656208C13.9369 0.0220818 14.019 0.0645317 14.083 0.128131C14.1469 0.191729 14.1896 0.273386 14.2052 0.361979C14.2208 0.450573 14.2086 0.541796 14.1702 0.623227L8.01259 13.7471C7.97725 13.8226 7.92098 13.8865 7.8504 13.9313C7.77981 13.9761 7.69783 14 7.6141 14L7.61322 13.9991Z" fill="#CBCBCB"/>
</svg>
