<?xml version="1.0" encoding="utf-8"?>
<!-- Generator: Adobe Illustrator 23.0.1, SVG Export Plug-In . SVG Version: 6.00 Build 0)  -->
<svg version="1.1" id="Capa_1" xmlns="http://www.w3.org/2000/svg" xmlns:xlink="http://www.w3.org/1999/xlink" x="0px" y="0px"
	 viewBox="0 0 308.9 309.3" style="enable-background:new 0 0 308.9 309.3;" xml:space="preserve">
<style type="text/css">
	.st0{fill:#929292;}
</style>
<path class="st0" d="M10.6,309.3h2.1l100.8-21.9c2-0.3,3.8-1.2,5.2-2.6L289.5,114c12.5-12.5,19.4-29.4,19.3-47
	c0-17.8-6.9-34.8-19.3-47.5C277.1,6.9,260.2-0.1,242.6,0c-17.7-0.2-34.8,7-47,19.9L25.2,190.7c-1.5,1.2-2.6,2.9-3.1,4.7L0.2,296.2
	c-0.6,3.6,0.6,7.3,3.1,9.9C5.2,308.1,7.8,309.3,10.6,309.3z M242.6,20.9c25.1,0,45.5,20.3,45.5,45.4c0,0.2,0,0.3,0,0.5
	c0.2,12-4.5,23.5-13.1,31.9L210.7,34C219.2,25.5,230.6,20.8,242.6,20.9z M196.1,49.1l64.3,64.3l-149,148.3L47.2,198L196.1,49.1z
	 M38.8,218.9l51.7,51.7l-66.4,14.6L38.8,218.9z"/>
</svg>
