<svg width="19" height="19" viewBox="0 0 19 19" fill="none" xmlns="http://www.w3.org/2000/svg">
<path d="M9.39947 0C4.2166 0 0 4.16083 0 9.27514C0 14.3894 4.2166 18.5503 9.39947 18.5503C14.5823 18.5503 18.7989 14.3894 18.7989 9.27514C18.7989 4.16083 14.5823 0 9.39947 0ZM9.39947 16.6952C5.25336 16.6952 1.87989 13.3664 1.87989 9.27514C1.87989 5.18387 5.25336 1.85503 9.39947 1.85503C13.5456 1.85503 16.919 5.18387 16.919 9.27514C16.919 13.3664 13.5456 16.6952 9.39947 16.6952Z" fill="#888888"/>
<path d="M10.026 3.70996H8.27148V10.3881H13.5352V8.16203H10.026V3.70996Z" fill="#888888"/>
</svg>
