<?xml version="1.0" encoding="utf-8"?>
<!-- Generator: Adobe Illustrator 23.0.1, SVG Export Plug-In . SVG Version: 6.00 Build 0)  -->
<svg version="1.1" id="Layer_1" xmlns="http://www.w3.org/2000/svg" xmlns:xlink="http://www.w3.org/1999/xlink" x="0px" y="0px"
	 viewBox="0 0 19 19" style="enable-background:new 0 0 19 19;" xml:space="preserve">
<style type="text/css">
	.st0{fill:#3E4958;}
</style>
<path class="st0" d="M9.4,0C4.2,0,0,4.2,0,9.3c0,5.1,4.2,9.3,9.4,9.3c5.2,0,9.4-4.2,9.4-9.3C18.8,4.2,14.6,0,9.4,0z M9.4,16.7
	c-4.1,0-7.5-3.3-7.5-7.4c0-4.1,3.4-7.4,7.5-7.4c4.1,0,7.5,3.3,7.5,7.4C16.9,13.4,13.5,16.7,9.4,16.7z"/>
<path class="st0" d="M10,3.7H8.3v6.7h5.3V8.2H10V3.7z"/>
</svg>
