<svg width="13" height="14" viewBox="0 0 13 14" fill="none" xmlns="http://www.w3.org/2000/svg">
<circle cx="6.5" cy="6.54883" r="6.5" fill="#444444"/>
<path d="M5.83599 7.10595H6.99699C6.86199 5.85495 8.82399 5.70195 8.82399 4.37895C8.82399 3.18195 7.86999 2.57894 6.56499 2.57894C5.60199 2.57894 4.80999 3.01095 4.24299 3.67695L4.98099 4.36094C5.42199 3.89295 5.86299 3.64995 6.42099 3.64995C7.12299 3.64995 7.55499 3.95594 7.55499 4.49594C7.55499 5.36895 5.64699 5.69295 5.83599 7.10595ZM6.42099 9.49995C6.87999 9.49995 7.21299 9.17595 7.21299 8.70795C7.21299 8.23095 6.87999 7.90695 6.42099 7.90695C5.97099 7.90695 5.62899 8.23095 5.62899 8.70795C5.62899 9.17595 5.96199 9.49995 6.42099 9.49995Z" fill="white"/>
</svg>
