<?xml version="1.0" encoding="utf-8"?>
<!-- Generator: Adobe Illustrator 23.0.1, SVG Export Plug-In . SVG Version: 6.00 Build 0)  -->
<svg version="1.1" id="Layer_1" xmlns="http://www.w3.org/2000/svg" xmlns:xlink="http://www.w3.org/1999/xlink" x="0px" y="0px"
	 viewBox="0 0 19 19" style="enable-background:new 0 0 19 19;" xml:space="preserve">
<style type="text/css">
	.st0{fill:#3E4958;}
</style>
<path class="st0" d="M9.5,0C7,0,4.6,1,2.8,2.8C1,4.6,0,7,0,9.5c0,2.5,1,4.9,2.8,6.7C4.6,18,7,19,9.5,19c2.5,0,4.9-1,6.7-2.8
	C18,14.4,19,12,19,9.5c0-2.5-1-4.9-2.8-6.7C14.4,1,12,0,9.5,0z M9.5,17.1c-2,0-3.9-0.8-5.4-2.2c-1.4-1.4-2.2-3.4-2.2-5.4
	c0-2,0.8-3.9,2.2-5.4c1.4-1.4,3.4-2.2,5.4-2.2c2,0,3.9,0.8,5.4,2.2s2.2,3.4,2.2,5.4c0,2-0.8,3.9-2.2,5.4S11.5,17.1,9.5,17.1z"/>
<path class="st0" d="M12.3,10c0.2,0,0.4-0.1,0.5-0.2C12.9,9.7,13,9.5,13,9.4s-0.1-0.3-0.2-0.4c-0.1-0.1-0.3-0.2-0.5-0.2h-1.5L12.9,6
	C12.9,5.9,13,5.8,13,5.8c0-0.1,0-0.2,0-0.2c0-0.1-0.1-0.2-0.1-0.2c-0.1-0.1-0.1-0.1-0.2-0.2c-0.1,0-0.2-0.1-0.3-0.1
	c-0.1,0-0.2,0-0.3,0c-0.1,0-0.2,0.1-0.3,0.1c-0.1,0-0.1,0.1-0.2,0.2l-2.2,3l-2.2-3c0-0.1-0.1-0.1-0.2-0.2C7,5.1,6.9,5,6.8,5
	C6.8,5,6.7,5,6.6,5c-0.1,0-0.2,0-0.3,0.1c-0.1,0-0.1,0.1-0.2,0.2C6.1,5.4,6,5.4,6,5.5c0,0.1,0,0.2,0,0.2C6,5.8,6.1,5.9,6.1,6
	l2.1,2.8H6.7c-0.2,0-0.4,0.1-0.5,0.2C6.1,9.1,6,9.2,6,9.4s0.1,0.3,0.2,0.4C6.3,9.9,6.5,10,6.7,10h2.1v1.2H6.7
	c-0.2,0-0.4,0.1-0.5,0.2C6.1,11.6,6,11.7,6,11.9s0.1,0.3,0.2,0.4c0.1,0.1,0.3,0.2,0.5,0.2h2.1v1.9c0,0.2,0.1,0.3,0.2,0.4
	C9.1,14.9,9.3,15,9.5,15s0.4-0.1,0.5-0.2c0.1-0.1,0.2-0.3,0.2-0.4v-1.9h2.1c0.2,0,0.4-0.1,0.5-0.2c0.1-0.1,0.2-0.3,0.2-0.4
	s-0.1-0.3-0.2-0.4c-0.1-0.1-0.3-0.2-0.5-0.2h-2.1V10H12.3z"/>
</svg>
