<?xml version="1.0" encoding="utf-8"?>
<!-- Generator: Adobe Illustrator 23.0.1, SVG Export Plug-In . SVG Version: 6.00 Build 0)  -->
<svg version="1.1" id="Layer_1" xmlns="http://www.w3.org/2000/svg" xmlns:xlink="http://www.w3.org/1999/xlink" x="0px" y="0px"
	 viewBox="0 0 19 19" style="enable-background:new 0 0 19 19;" xml:space="preserve">
<style type="text/css">
	.st0{fill:#FFFFFF;}
</style>
<path class="st0" d="M3.6,12.4c-0.1-0.2-0.2-0.4-0.2-0.7C3,8.7,5.5,6.3,7.8,5.4c2.3-0.9,5,0.5,6.6-1c0.4-0.4,0.8-0.8,1.4-0.8
	c0.3,0,0.5,0.1,0.6,0.3c2,3.9-0.8,8.5-4,10.1c-2,1-4.1,1.2-6.1,0.5c-0.5-0.1-1-0.7-1.5-0.7C4.3,14,4,14.7,3.7,15
	c-0.3,0.5-0.9,0.6-1.4,0.2C1.1,14,3.7,12.9,3.6,12.4z M5.4,11.9C5.6,12.1,6,12,6.3,11.8c1.7-2,4-2.8,6.5-2.8c0.4,0,0.6-0.3,0.7-0.6
	c0-0.4-0.3-0.6-0.6-0.6C9.8,7.7,7.2,9,5.3,11C5.1,11.3,5.1,11.7,5.4,11.9z"/>
</svg>
