<svg width="18" height="18" viewBox="0 0 18 18" fill="none" xmlns="http://www.w3.org/2000/svg">
<g clip-path="url(#clip0)">
<path d="M14.4544 3.4049L14.462 3.39734L14.4605 3.3959C14.5062 3.34664 14.5311 3.28162 14.53 3.21443C14.5289 3.14724 14.5019 3.08308 14.4546 3.03536L14.085 2.66582C14.0373 2.61851 13.9732 2.59147 13.906 2.59037C13.8388 2.58926 13.7738 2.61417 13.7245 2.65988L13.7229 2.65826L12.1313 4.25C12.0823 4.29901 12.0548 4.36547 12.0548 4.43477C12.0548 4.50406 12.0823 4.57052 12.1313 4.61954L12.5009 4.98926H12.501C12.5501 5.03825 12.6165 5.06577 12.6858 5.06577C12.7551 5.06577 12.8216 5.03825 12.8706 4.98926L14.4544 3.4049Z" fill="#EC6B6B"/>
<path d="M8.73872 3.46954V3.46972H9.26125V3.46954C9.40201 3.46954 9.51595 3.35812 9.52153 3.2188H9.52261V0.968263C9.52261 0.823903 9.40561 0.706903 9.26125 0.706903V0.706543H8.73872V0.706723C8.59436 0.706723 8.47736 0.823723 8.47736 0.968083V3.2188H8.47844C8.48104 3.28612 8.50959 3.34982 8.55811 3.39656C8.60663 3.4433 8.67135 3.46945 8.73872 3.46954Z" fill="#EC6B6B"/>
<path d="M16.4904 7.19935C16.4904 7.05841 16.3789 6.94465 16.2396 6.93907V6.93799H13.9889C13.8445 6.93799 13.7275 7.05481 13.7275 7.19935V7.72189C13.7275 7.86643 13.8445 7.98343 13.9889 7.98343H16.2396V7.98235C16.307 7.9797 16.3707 7.95111 16.4174 7.90256C16.4641 7.85402 16.4903 7.78927 16.4904 7.72189V7.19935Z" fill="#EC6B6B"/>
<path d="M9 4.35596C6.88392 4.35596 5.1687 6.07118 5.1687 8.18726C5.16833 8.98451 5.41815 9.76179 5.88294 10.4095H5.8815C6.45282 11.3009 6.80976 12.4817 6.83604 13.7826C6.88194 13.858 6.96402 13.9091 7.0587 13.9091C7.06878 13.9091 7.07832 13.9073 7.08804 13.906V13.9091H10.899V13.906C10.9087 13.9071 10.9183 13.9091 10.9282 13.9091C10.9772 13.909 11.0252 13.895 11.0667 13.8688C11.1082 13.8427 11.1415 13.8053 11.1627 13.7611C11.1942 12.396 11.5895 11.1639 12.2144 10.2621C12.6022 9.6638 12.8313 8.95352 12.8313 8.18744C12.8313 6.07118 11.1161 4.35596 9 4.35596Z" fill="#EC6B6B"/>
<path d="M10.9282 16.1616C10.9181 16.1616 10.9087 16.1634 10.899 16.1647V16.1616H7.08806V16.1647C7.07834 16.1636 7.0688 16.1616 7.05872 16.1616C6.91454 16.1616 6.79736 16.2784 6.79736 16.423V17.0321C6.79736 17.1765 6.91436 17.2935 7.05872 17.2935C7.0688 17.2935 7.07834 17.2917 7.08806 17.2904V17.2935H10.899V17.2906C10.9087 17.2917 10.9183 17.2935 10.9282 17.2935C11.0725 17.2935 11.1895 17.1765 11.1895 17.0321V16.423C11.1895 16.2784 11.0725 16.1616 10.9282 16.1616Z" fill="#EC6B6B"/>
<path d="M10.9282 14.4624C10.9181 14.4624 10.9087 14.4642 10.899 14.4655V14.4624H7.08806V14.4655C7.07834 14.4644 7.0688 14.4624 7.05872 14.4624C6.99104 14.4625 6.92604 14.4889 6.87744 14.536C6.82885 14.5831 6.80046 14.6473 6.79826 14.7149L6.79736 14.7252V15.3329C6.79736 15.4772 6.91436 15.5942 7.05872 15.5942C7.0688 15.5942 7.07834 15.5924 7.08806 15.5912V15.5942H10.899V15.5914C10.9087 15.5924 10.9183 15.5944 10.9282 15.5944C11.0725 15.5944 11.1895 15.4774 11.1895 15.3331V14.7238C11.1895 14.5792 11.0725 14.4624 10.9282 14.4624Z" fill="#EC6B6B"/>
<path d="M4.02193 7.14317L1.77103 7.14209C1.62667 7.14209 1.50967 7.25909 1.50967 7.40327V7.92599C1.50967 8.07017 1.62667 8.18717 1.77103 8.18717H4.02193C4.0892 8.18452 -113.539 20.0769 4.19958 8.10661C4.2463 8.05814 4.27249 7.99349 4.27267 7.92617V7.40327C4.27249 7.33595 4.2463 7.27129 4.19958 7.22282C4.15285 7.17436 4.0892 7.14582 4.02193 7.14317Z" fill="#EC6B6B"/>
<path d="M3.63585 3.31472L5.22741 4.90646L5.22903 4.90484C5.33145 4.99898 5.49003 4.99826 5.58939 4.8989H5.58957L5.95911 4.52918C6.00646 4.48148 6.03352 4.41731 6.03463 4.35011C6.03574 4.2829 6.01081 4.21788 5.96505 4.16864L5.96667 4.16702L4.37493 2.57546C4.3259 2.52651 4.25945 2.49902 4.19016 2.49902C4.12088 2.49902 4.05443 2.52651 4.00539 2.57546L3.63585 2.945C3.58685 2.99404 3.55933 3.06053 3.55933 3.12986C3.55933 3.19919 3.58685 3.26568 3.63585 3.31472Z" fill="#EC6B6B"/>
</g>
<defs>
<clipPath id="clip0">
<rect width="18" height="18" fill="white"/>
</clipPath>
</defs>
</svg>
