<svg width="185" height="44" viewBox="0 0 185 44" fill="none" xmlns="http://www.w3.org/2000/svg">
<path d="M0 20.8446C0 9.56965 5.44118 2.74965 14.664 2.74965C18.7093 2.54875 22.6539 4.06391 25.5463 6.92965C26.98 8.41003 27.8394 10.3621 27.9676 12.4296C28.1247 13.6179 27.7661 14.8168 26.984 15.718C26.202 16.6192 25.0727 17.1348 23.8868 17.1321C22.2864 17.0368 20.8021 16.2567 19.8059 14.9871C18.7195 13.5887 17.0988 12.7197 15.3441 12.5946C11.8346 12.5946 9.90294 15.8671 9.90294 21.5321V23.2646C9.90294 29.5346 11.8346 32.8621 15.3441 32.8621C17.1398 32.748 18.8067 31.8807 19.9419 30.4696C20.8981 29.191 22.3586 28.3977 23.9412 28.2971C25.1033 28.3334 26.1957 28.8657 26.9477 29.7621C27.6996 30.6584 28.0406 31.8349 27.886 32.9996C27.7677 35.7022 26.4226 38.1984 24.2404 39.7646C21.4783 41.8409 18.1048 42.9162 14.664 42.8171C5.14191 42.7346 0 35.9146 0 23.9246V20.8446Z" fill="#EC6B6B"/>
<path d="M34.334 20.79C34.334 9.4875 39.7752 2.75 49.2156 2.75C58.656 2.75 64.0428 9.515 64.0428 20.79V24.75C64.0428 35.97 58.6016 42.68 49.2156 42.68C39.8296 42.68 34.334 35.9975 34.334 24.75V20.79ZM44.1825 24.75C44.1825 30.25 46.0053 33.275 49.2156 33.275C52.4259 33.275 54.2215 30.25 54.2215 24.75V20.7075C54.2215 15.2075 52.3987 12.21 49.2156 12.21C46.0325 12.21 44.1825 15.29 44.1825 20.7075V24.75Z" fill="#EC6B6B"/>
<path d="M74.2175 29.315C75.6714 29.3959 77.0457 30.0122 78.0807 31.0475C79.7697 32.5815 81.891 33.5431 84.1476 33.7975C86.8682 33.7975 88.1741 32.8625 88.1741 31.0475C88.1741 29.2325 87.0587 28.4075 83.7123 27.665L79.8491 26.8125C74.2478 26.1227 70.2075 21.0513 70.7351 15.3725C70.7351 7.56252 75.7138 2.75002 83.7396 2.75002C87.7905 2.54615 91.7396 4.07302 94.6219 6.95752C95.8084 8.20096 96.4883 9.85036 96.5263 11.5775C96.6257 12.6396 96.2783 13.6949 95.5691 14.4851C94.86 15.2752 93.8545 15.727 92.7991 15.73C91.4497 15.5942 90.1847 15.0034 89.2079 14.0525C87.7386 12.6335 85.7984 11.8196 83.7668 11.77C81.6719 11.77 80.4204 12.7875 80.4204 14.52C80.4204 16.2525 81.6447 17.27 84.5829 17.9575L88.555 18.7275C94.0576 19.2652 98.122 24.1561 97.6962 29.7275C97.6962 37.7025 92.255 42.9 83.5763 42.9C79.3799 43.0807 75.2986 41.4864 72.3131 38.5C71.1971 37.3057 70.5492 35.7418 70.4903 34.1C70.3289 32.961 70.6361 31.8049 71.3403 30.9009C72.0445 29.9968 73.0843 29.4237 74.2175 29.315Z" fill="#5CD5D5"/>
<path d="M103.927 20.79C103.927 9.4875 109.368 2.75 118.781 2.75C128.194 2.75 133.636 9.515 133.636 20.79V24.75C133.636 35.97 128.194 42.68 118.781 42.68C109.368 42.68 103.927 35.9975 103.927 24.75V20.79ZM113.748 24.75C113.748 30.25 115.571 33.275 118.781 33.275C121.991 33.275 123.787 30.25 123.787 24.75V20.7075C123.787 15.2075 121.964 12.21 118.781 12.21C115.598 12.21 113.748 15.29 113.748 20.7075V24.75Z" fill="#5CD5D5"/>
<path d="M159.318 3.10742C162.528 3.10742 164.323 5.41742 164.323 9.67992V27.3074C164.323 37.3449 159.644 42.7349 151.02 42.7349C147.423 42.985 143.909 41.5684 141.471 38.8849C140.369 37.4564 139.784 35.6906 139.811 33.8799C139.811 30.8549 141.498 28.9299 143.865 28.9299C145.262 28.9853 146.577 29.6104 147.51 30.6624C148.474 31.9032 149.901 32.6888 151.455 32.8349C153.659 32.8349 154.611 31.4599 154.611 27.3349V9.67992C154.475 5.49992 156.162 3.10742 159.318 3.10742Z" fill="#5CD5D5"/>
<path d="M172.921 35.7499V9.45992C172.921 5.49992 174.662 3.10742 177.845 3.10742C181.028 3.10742 182.742 5.38992 182.742 9.45992V35.7499C182.742 39.8199 181.028 42.0749 177.899 42.0749C174.771 42.0749 172.921 39.8749 172.921 35.7499Z" fill="#5CD5D5"/>
</svg>
