<svg width="13" height="15" viewBox="0 0 13 15" fill="none" xmlns="http://www.w3.org/2000/svg">
<path fill-rule="evenodd" clip-rule="evenodd" d="M6.26264 4.47761C5.31473 4.47761 4.53916 5.28358 4.53916 6.26866C4.53916 7.25373 5.31473 8.0597 6.26264 8.0597C6.71974 8.0597 7.15811 7.871 7.48132 7.53512C7.80454 7.19923 7.98612 6.74367 7.98612 6.26866C7.98612 5.79364 7.80454 5.33808 7.48132 5.0022C7.15811 4.66631 6.71974 4.47761 6.26264 4.47761ZM6.26264 0C9.08053 0 12.2948 2.20298 12.2948 6.40298C12.2948 9.07164 10.4593 11.8836 6.7883 14.8119C6.47807 15.0627 6.04721 15.0627 5.73698 14.8119C2.06597 11.8746 0.230469 9.07164 0.230469 6.40298C0.230469 2.20298 3.44475 0 6.26264 0Z" fill="#CBCBCB"/>
</svg>
