<?xml version="1.0" encoding="utf-8"?>
<!-- Generator: Adobe Illustrator 23.0.1, SVG Export Plug-In . SVG Version: 6.00 Build 0)  -->
<svg version="1.1" id="Layer_1" xmlns="http://www.w3.org/2000/svg" xmlns:xlink="http://www.w3.org/1999/xlink" x="0px" y="0px"
	 viewBox="0 0 19 19" style="enable-background:new 0 0 19 19;" xml:space="preserve">
<style type="text/css">
	.st0{fill:#BBC4C8;}
</style>
<g>
	<path class="st0" d="M4.4,7.6L0.6,9.2c0.3,2.1,1.5,4.4,3.4,6.4c1.9,1.9,4.2,3.1,6.4,3.4l2-4.7L6.2,8.1C5.6,8.1,4.9,7.9,4.4,7.6z"/>
	<path class="st0" d="M18.4,2.7L17,1.4l-5.5,5.5c-0.5-0.3-1-0.5-1.5-0.7C9.6,6.8,9,7.3,8.3,7.7l4.9,4.9c0.9-1.1,0.7-2.9-0.3-4.4
		L18.4,2.7z"/>
	<path class="st0" d="M5.2,7.2c0.1,0,0.1,0,0.2,0.1C5.7,7.4,6,7.4,6.4,7.4c0.5,0,0.9-0.1,1.4-0.3C8.2,7,8.6,6.7,9,6.3
		C9.1,6.2,9.2,6.1,9.3,6c0.5-0.6,0.8-1.4,0.8-2.3c0-1-0.4-2-1.1-2.6C8.3,0.4,7.4,0,6.4,0c-1,0-2,0.4-2.6,1.1
		C3.1,1.8,2.7,2.7,2.7,3.7c0,1,0.4,2,1.1,2.6C4.2,6.8,4.7,7.1,5.2,7.2z M4,3.4h2v-2h0.7v2h2v0.7h-2v2H6v-2H4V3.4z"/>
</g>
</svg>
