<?xml version="1.0" encoding="utf-8"?>
<!-- Generator: Adobe Illustrator 23.0.1, SVG Export Plug-In . SVG Version: 6.00 Build 0)  -->
<svg version="1.1" id="Layer_1" xmlns="http://www.w3.org/2000/svg" xmlns:xlink="http://www.w3.org/1999/xlink" x="0px" y="0px"
	 viewBox="0 0 19 19" style="enable-background:new 0 0 19 19;" xml:space="preserve">
<style type="text/css">
	.st0{fill-rule:evenodd;clip-rule:evenodd;fill:#BBC4C8;}
</style>
<path class="st0" d="M12.5,2.7c0.1-0.4,0.3-0.8,0.7-1.1c0.3-0.3,0.7-0.5,1.2-0.6c0.4-0.1,0.9-0.1,1.3,0.1c0.4,0.1,0.8,0.4,1.1,0.7
	C17,2.2,17.1,2.6,17.2,3c0.1,0.4,0,0.9-0.2,1.3c-0.2,0.4-0.5,0.7-0.8,1c-0.4,0.3-0.8,0.4-1.2,0.4c0.2,0.6,0.3,1.3,0.3,1.9v5.7h1
	c0.5,0,1,0.4,1,0.9s-0.4,0.9-1,0.9h-3.9v1c0,0.8-0.3,1.5-0.8,2c-0.5,0.5-1.3,0.8-2,0.8c-0.8,0-1.5-0.3-2-0.8c-0.5-0.5-0.8-1.3-0.8-2
	v-1H2.7c-0.5,0-1-0.4-1-0.9s0.4-0.9,1-0.9h1V7.6c0-1.3,0.5-2.7,1.4-3.7C6,2.9,7.2,2.2,8.5,2V1c0-0.3,0.1-0.5,0.3-0.7
	C9,0.1,9.2,0,9.5,0s0.5,0.1,0.7,0.3c0.2,0.2,0.3,0.4,0.3,0.7v1C11.2,2.1,11.9,2.3,12.5,2.7z M9.5,17.1c0.3,0,0.5-0.1,0.7-0.3
	c0.2-0.2,0.3-0.4,0.3-0.7v-1H8.5v1c0,0.3,0.1,0.5,0.3,0.7C9,17,9.2,17.1,9.5,17.1z M5.6,13.3h7.7V7.6c0-1-0.4-2-1.1-2.7
	c-0.7-0.7-1.7-1.1-2.7-1.1c-1,0-2,0.4-2.7,1.1C6,5.6,5.6,6.6,5.6,7.6V13.3z"/>
</svg>
