<svg width="22" height="26" viewBox="0 0 22 26" fill="none" xmlns="http://www.w3.org/2000/svg">
<path fill-rule="evenodd" clip-rule="evenodd" d="M14.638 3.66675C14.7932 3.0953 15.1055 2.57708 15.5405 2.16914C15.9755 1.76121 16.5164 1.47939 17.1037 1.3547C17.6909 1.23001 18.3017 1.2673 18.8689 1.46245C19.436 1.6576 19.9374 2.00306 20.3179 2.46077C20.6985 2.91849 20.9433 3.47072 21.0256 4.05667C21.1079 4.64261 21.0243 5.23955 20.7842 5.78175C20.544 6.32395 20.1566 6.79038 19.6645 7.12971C19.1724 7.46903 18.5948 7.66808 17.9952 7.70493C18.2926 8.53248 18.444 9.404 18.4429 10.2818V17.9932H19.7482C20.4661 17.9932 21.0535 18.5715 21.0535 19.2784C21.0535 19.9853 20.4661 20.5636 19.7482 20.5636H14.5271V21.8489C14.5271 22.8714 14.1145 23.8521 13.3802 24.5752C12.6458 25.2983 11.6498 25.7045 10.6112 25.7045C9.57268 25.7045 8.57667 25.2983 7.8423 24.5752C7.10794 23.8521 6.69537 22.8714 6.69537 21.8489V20.5636H1.47423C0.756324 20.5636 0.168945 19.9853 0.168945 19.2784C0.168945 18.5715 0.756324 17.9932 1.47423 17.9932H2.77952V10.2818C2.77975 8.4594 3.43527 6.69592 4.62989 5.30393C5.82451 3.91195 7.48106 2.98137 9.30595 2.67713V1.28523C9.30595 0.944363 9.44347 0.617461 9.68826 0.376434C9.93304 0.135407 10.265 0 10.6112 0C10.9574 0 11.2894 0.135407 11.5342 0.376434C11.779 0.617461 11.9165 0.944363 11.9165 1.28523V2.67713C12.8787 2.83608 13.8019 3.17179 14.638 3.66675ZM10.6112 23.1341C10.9574 23.1341 11.2894 22.9987 11.5342 22.7576C11.779 22.5166 11.9165 22.1897 11.9165 21.8489V20.5636H9.30595V21.8489C9.30595 22.1897 9.44347 22.5166 9.68826 22.7576C9.93304 22.9987 10.265 23.1341 10.6112 23.1341ZM5.39009 17.9932H15.8324V10.2818C15.8324 8.91836 15.2823 7.61075 14.3031 6.64664C13.324 5.68254 11.996 5.14091 10.6112 5.14091C9.2265 5.14091 7.89848 5.68254 6.91933 6.64664C5.94017 7.61075 5.39009 8.91836 5.39009 10.2818V17.9932Z" fill="#D5DDE0"/>
</svg>
