<?xml version="1.0" encoding="utf-8"?>
<!-- Generator: Adobe Illustrator 23.0.1, SVG Export Plug-In . SVG Version: 6.00 Build 0)  -->
<svg version="1.1" id="Layer_1" xmlns="http://www.w3.org/2000/svg" xmlns:xlink="http://www.w3.org/1999/xlink" x="0px" y="0px"
	 viewBox="0 0 19 19" style="enable-background:new 0 0 19 19;" xml:space="preserve">
<style type="text/css">
	.st0{fill:#BBC4C8;}
</style>
<path class="st0" d="M9.5,19c-5.3,0-9.6-4.3-9.6-9.5C-0.1,4.3,4.2,0,9.5,0c5.3,0,9.6,4.3,9.6,9.5C19.1,14.7,14.8,19,9.5,19z
	 M4.7,15.4c1.4,1.1,3,1.7,4.8,1.7c1.9,0,3.6-0.7,4.9-1.8c-0.6-0.6-1.4-1.1-2.2-1.5c-0.8-0.3-1.7-0.5-2.6-0.5c-0.9,0-1.8,0.2-2.7,0.6
	C6.1,14.2,5.4,14.8,4.7,15.4z M3.4,14.1c0.8-0.8,1.8-1.5,2.8-2c1.1-0.5,2.2-0.7,3.4-0.7c1.1,0,2.2,0.2,3.3,0.6c1,0.4,2,1.1,2.8,1.9
	c0.8-1.1,1.3-2.5,1.4-3.9c0.1-1.4-0.2-2.8-0.9-4c-0.7-1.2-1.6-2.3-2.9-3c-1.2-0.7-2.6-1.1-4-1.1c-1.4,0-2.8,0.4-4,1.2
	S3.3,4.9,2.6,6.2C2,7.4,1.8,8.8,1.9,10.2C2,11.6,2.5,13,3.4,14.1L3.4,14.1z M9.5,10.4c-1,0-2-0.4-2.7-1.1C6.1,8.6,5.7,7.7,5.7,6.6
	s0.4-2,1.1-2.7c0.7-0.7,1.7-1.1,2.7-1.1c1,0,2,0.4,2.7,1.1c0.7,0.7,1.1,1.7,1.1,2.7s-0.4,2-1.1,2.7C11.5,10,10.5,10.4,9.5,10.4z
	 M9.5,8.5c0.5,0,1-0.2,1.4-0.6c0.4-0.4,0.6-0.8,0.6-1.3c0-0.5-0.2-1-0.6-1.3C10.5,5,10,4.7,9.5,4.7C9,4.7,8.5,5,8.1,5.3
	C7.8,5.7,7.6,6.1,7.6,6.6c0,0.5,0.2,1,0.6,1.3C8.5,8.3,9,8.5,9.5,8.5z"/>
</svg>
