<svg width="19" height="19" viewBox="0 0 19 19" fill="none" xmlns="http://www.w3.org/2000/svg">
<g clip-path="url(#clip0)">
<path d="M18.9136 14.0601C17.9619 12.9983 17.2231 11.7981 16.7741 10.4029C16.4613 9.43114 16.3347 8.40755 16.3493 7.38519C16.3591 6.74437 16.3822 6.10107 16.3566 5.46148C16.3104 4.26997 16.1473 3.21428 15.8151 2.06845L15.8053 2.07216C14.9461 2.23391 14.2281 2.36479 13.3701 2.52654C13.224 1.58444 12.8772 0.762109 12.007 0.297852C10.801 0.591717 9.56813 0.717659 8.31826 0.702842C7.75235 0.695434 7.18522 0.662096 6.62174 0.692965C5.33901 0.763344 4.12443 1.11401 2.978 1.70421C1.89851 2.2586 0.945593 2.98586 0.0997687 3.86251C0.00240771 3.96376 -0.0268006 4.11563 0.026748 4.24651C0.154534 4.56631 0.287189 4.88487 0.395503 5.21207C0.989405 6.99749 1.20482 8.83723 1.11111 10.714C1.02957 12.3476 1.31922 13.9046 2.01778 15.3788C2.57761 16.5617 3.33824 17.6001 4.26682 18.5126C4.42747 18.6706 4.51752 18.6632 4.69643 18.5212C5.05544 18.2385 5.41811 17.9582 5.78809 17.6915C5.96942 17.4964 6.33209 17.3408 6.54142 17.2161C6.54142 17.2161 6.95764 16.9445 8.04565 16.7197C7.60022 15.995 7.18035 15.2541 6.74709 14.5207C6.74344 14.5232 6.73979 14.5244 6.73736 14.5269C6.24325 13.6897 5.74427 12.8538 5.25747 12.013C5.18201 11.8821 5.12725 11.729 5.10534 11.5796C5.07005 11.3363 5.14185 11.1141 5.35483 10.9671C5.56902 10.8202 5.80026 10.8313 6.0035 10.9708C6.14345 11.0659 6.27367 11.1993 6.36252 11.3437C6.74222 11.9636 7.10368 12.5945 7.47365 13.2218C7.52233 13.3045 7.56127 13.4168 7.69271 13.3563C7.7779 13.3168 7.77425 13.2353 7.68784 13.0884C6.96129 11.8574 6.23351 10.6276 5.51304 9.39409C5.43394 9.25951 5.3743 9.10517 5.34023 8.95206C5.27207 8.63844 5.40108 8.32976 5.63839 8.18159C5.87084 8.03589 6.20552 8.06182 6.44892 8.26926C6.56697 8.3705 6.67285 8.49521 6.75318 8.6298C7.4128 9.73982 8.06512 10.8535 8.71987 11.966C8.79167 12.0883 8.86348 12.2117 8.93772 12.3315C8.98153 12.4019 9.0436 12.4352 9.12148 12.3858C9.1945 12.3389 9.1872 12.2698 9.15191 12.2031C9.1081 12.1191 9.05942 12.0376 9.01074 11.9562C8.16978 10.53 7.32639 9.10393 6.49274 7.67165C6.40268 7.51731 6.34913 7.32839 6.32722 7.15059C6.29558 6.88636 6.39538 6.65176 6.62539 6.50483C6.85541 6.35666 7.09637 6.38259 7.33004 6.50853C7.50894 6.60484 7.63551 6.75178 7.73774 6.92587C8.53367 8.28037 9.33203 9.6324 10.1292 10.9857C10.2192 11.1375 10.3081 11.2894 10.3993 11.4413C10.4432 11.5154 10.504 11.5438 10.5819 11.4968C10.6561 11.4524 10.6513 11.3857 10.6172 11.3166C10.6038 11.2894 10.5868 11.2647 10.5722 11.2388C9.94053 10.167 9.3089 9.09653 8.67728 8.02478C8.55923 7.82475 8.47768 7.61485 8.48864 7.37655C8.5142 6.83944 9.00222 6.55175 9.47442 6.79499C9.67157 6.89624 9.81031 7.05675 9.92106 7.24567C10.7803 8.70759 11.6395 10.1695 12.4987 11.6314C12.523 11.6722 12.5401 11.7253 12.5754 11.7487C12.6228 11.7796 12.6922 11.8117 12.7372 11.7981C12.7713 11.7882 12.8054 11.703 12.8017 11.6536C12.7944 11.5512 12.764 11.4512 12.7421 11.3499C12.6167 10.7708 12.5218 10.1868 12.5875 9.59165C12.6277 9.22988 12.7153 8.88539 13.0001 8.62856C13.2253 8.42483 13.4869 8.43718 13.6877 8.6619C13.8678 8.8644 13.9542 9.11505 14.0187 9.3694C14.1879 10.0423 14.34 10.7202 14.5007 11.3956C14.6918 12.2006 14.8792 13.0069 14.9802 13.8317C15.069 14.5565 15.0289 15.2652 14.7356 15.9394C14.8865 15.9098 15.0264 15.8826 15.1554 15.8579C16.4443 15.5949 17.6832 15.1874 18.8357 14.5367C19.0194 14.433 19.0547 14.2182 18.9136 14.0601Z" fill="#444444"/>
<path d="M10.919 18.8152C10.6184 18.8152 10.3202 18.7707 10.0306 18.6831C9.23831 18.4423 8.58477 17.9237 8.09066 17.1409C8.0432 17.0668 7.99817 16.9915 7.95192 16.9174L7.89107 16.8186C7.5929 16.3334 7.30082 15.8333 7.01969 15.3505C6.90773 15.1579 6.79576 14.9653 6.68258 14.7739L6.58035 14.6245L6.20916 13.9973C5.84406 13.3799 5.46557 12.7403 5.09925 12.1081C5.0104 11.9563 4.94834 11.7785 4.924 11.6068C4.87653 11.2735 4.99215 10.992 5.25137 10.8154C5.38403 10.724 5.52642 10.6783 5.67368 10.6783C5.82093 10.6783 5.97063 10.7265 6.1045 10.8191C6.12154 10.8314 6.13979 10.8438 6.15683 10.8561C5.88909 10.4005 5.62134 9.9449 5.35482 9.48929C5.26598 9.33741 5.19904 9.16579 5.16131 8.99293C5.07734 8.60893 5.23068 8.21999 5.54224 8.0249C5.66759 7.94588 5.81485 7.90513 5.97063 7.90513C6.17022 7.90513 6.36737 7.97304 6.52924 8.09898C6.46473 7.98786 6.40023 7.87673 6.33573 7.76684C6.23959 7.60139 6.17265 7.39025 6.14709 7.17294C6.10693 6.83092 6.24567 6.53088 6.52924 6.34937C6.66311 6.26294 6.80793 6.21973 6.95884 6.21973C7.10732 6.21973 7.26066 6.26171 7.41765 6.34567C7.60629 6.44692 7.76329 6.6062 7.89594 6.83215C8.03468 7.06799 8.17342 7.30382 8.31216 7.53842C8.30607 7.48162 8.30486 7.42482 8.30729 7.36802C8.33041 6.87784 8.67726 6.52224 9.13243 6.52224C9.27603 6.52224 9.41964 6.55804 9.55838 6.62966C9.76527 6.73708 9.93565 6.90624 10.0793 7.15071L12.5608 11.3747C12.439 10.8067 12.3368 10.1968 12.4062 9.57078C12.4464 9.21147 12.5328 8.80278 12.8784 8.49039C13.0171 8.36568 13.1741 8.29901 13.3336 8.29901C13.5137 8.29901 13.6828 8.38174 13.8228 8.53855C14.037 8.77932 14.1319 9.07071 14.1952 9.32383C14.3096 9.78068 14.4191 10.2462 14.5238 10.6969C14.5749 10.9154 14.626 11.1339 14.6771 11.3513C14.8828 12.2168 15.0617 12.9996 15.1603 13.8071C15.2637 14.6504 15.1798 15.3715 14.9023 16.0124C14.8986 16.0235 14.895 16.0309 14.8925 16.0383C14.3145 17.3422 13.3116 18.2238 11.9109 18.6584C11.5774 18.7633 11.2439 18.8152 10.919 18.8152Z" fill="#444444"/>
<path d="M6.95754 6.40362C7.08167 6.40362 7.20703 6.4419 7.32995 6.50857C7.50885 6.60488 7.63542 6.75182 7.73764 6.92591C8.53357 8.28041 9.33193 9.63244 10.1291 10.9857C10.2191 11.1376 10.308 11.2894 10.3993 11.4413C10.4285 11.4907 10.465 11.5203 10.51 11.5203C10.5319 11.5203 10.5562 11.5129 10.5818 11.4969C10.656 11.4524 10.6512 11.3858 10.6171 11.3166C10.6037 11.2894 10.5867 11.2647 10.5721 11.2388C9.94044 10.1671 9.30881 9.09656 8.67718 8.02482C8.55913 7.82479 8.47759 7.61489 8.48854 7.37659C8.50801 6.9716 8.79036 6.70736 9.13112 6.70736C9.24187 6.70736 9.35871 6.73453 9.47432 6.79503C9.67148 6.89628 9.81022 7.05679 9.92096 7.24571C10.7802 8.70763 11.6394 10.1695 12.4986 11.6315C12.5229 11.6722 12.54 11.7253 12.5753 11.7488C12.6142 11.7747 12.669 11.8019 12.7128 11.8019C12.7213 11.8019 12.7298 11.8006 12.7371 11.7982C12.7712 11.7883 12.8053 11.7031 12.8016 11.6537C12.7943 11.5512 12.7639 11.4512 12.742 11.3499C12.6166 10.7709 12.5217 10.1868 12.5874 9.59169C12.6276 9.22992 12.7152 8.88543 13 8.6286C13.1071 8.53229 13.2215 8.48414 13.3335 8.48414C13.4588 8.48414 13.5817 8.54341 13.6864 8.66194C13.8665 8.86444 13.9529 9.11509 14.0174 9.36944C14.1866 10.0424 14.3387 10.7202 14.4994 11.3956C14.6904 12.2007 14.8779 13.007 14.9789 13.8317C15.0677 14.5565 15.0276 15.2653 14.7343 15.9394C14.7306 15.9481 14.7282 15.9567 14.7245 15.9654C14.1537 17.2532 13.1753 18.0743 11.8572 18.483C11.5469 18.5793 11.2329 18.6299 10.9189 18.6299C10.6402 18.6299 10.3615 18.5892 10.0828 18.5052C9.28203 18.262 8.68448 17.736 8.24392 17.0408C8.17699 16.9346 8.11248 16.8272 8.04677 16.7198C7.60134 15.995 7.18147 15.2542 6.74821 14.5207C6.74456 14.5232 6.74091 14.5244 6.73848 14.5269C6.24437 13.6898 5.74539 12.8538 5.25859 12.013C5.18313 11.8821 5.12837 11.729 5.10646 11.5796C5.07117 11.3364 5.14297 11.1141 5.35595 10.9672C5.4594 10.8956 5.56893 10.8622 5.67602 10.8622C5.78921 10.8622 5.90117 10.9005 6.00584 10.9709C6.14579 11.066 6.27601 11.1993 6.36485 11.3438C6.74456 11.9636 7.10601 12.5946 7.47599 13.2218C7.51493 13.2885 7.54779 13.3737 7.6269 13.3737C7.64637 13.3737 7.66949 13.3687 7.69505 13.3564C7.78024 13.3169 7.77659 13.2354 7.69018 13.0884C6.96119 11.8574 6.23342 10.6276 5.51294 9.39413C5.43384 9.25955 5.37421 9.10521 5.34013 8.9521C5.27198 8.63848 5.40098 8.3298 5.6383 8.18163C5.73566 8.11989 5.85127 8.08903 5.97054 8.08903C6.13484 8.08903 6.30765 8.14829 6.44883 8.2693C6.56688 8.37054 6.67276 8.49525 6.75308 8.62984C7.4127 9.73986 8.06502 10.8536 8.71977 11.9661C8.79158 12.0883 8.86338 12.2118 8.93762 12.3316C8.96683 12.3785 9.00455 12.4093 9.04958 12.4093C9.07149 12.4093 9.09583 12.4019 9.12139 12.3859C9.19441 12.339 9.18711 12.2698 9.15181 12.2031C9.108 12.1192 9.05932 12.0377 9.01064 11.9562C8.16968 10.5301 7.32629 9.10397 6.49264 7.67169C6.40258 7.51735 6.34903 7.32843 6.32713 7.15063C6.29548 6.8864 6.39528 6.6518 6.62529 6.50487C6.73483 6.43572 6.84679 6.40362 6.95754 6.40362ZM6.95754 6.0332C6.77134 6.0332 6.59365 6.0863 6.43057 6.19125C6.08616 6.41226 5.91578 6.77774 5.96567 7.19385C5.98758 7.38276 6.03869 7.56674 6.11172 7.72849C6.06547 7.72231 6.01801 7.71861 5.97176 7.71861C5.78312 7.71861 5.60179 7.76923 5.44723 7.86678C5.06995 8.10384 4.88375 8.57181 4.98476 9.03236C5.02614 9.22374 5.10038 9.41389 5.19896 9.58305C5.37542 9.88556 5.55432 10.1905 5.73201 10.4943C5.71253 10.493 5.69306 10.4918 5.67359 10.4918C5.49104 10.4918 5.3097 10.5498 5.14906 10.661C4.83385 10.877 4.68659 11.2314 4.74379 11.6327C4.77178 11.8266 4.84237 12.0278 4.94217 12.2007C5.31092 12.8353 5.69063 13.4774 6.05695 14.0972C6.17987 14.3034 6.30157 14.5109 6.42327 14.7171L6.61069 15.0344L6.62043 15.0282C6.70197 15.1665 6.78229 15.3048 6.86261 15.4443C7.14496 15.9283 7.43583 16.4284 7.73521 16.9149L7.79606 17.0136C7.84231 17.089 7.88855 17.1643 7.9348 17.2396C8.45325 18.0595 9.14086 18.6052 9.97573 18.8583C10.2824 18.9509 10.5988 18.9991 10.9165 18.9991C11.2597 18.9991 11.6114 18.9435 11.9619 18.8361C13.415 18.3854 14.4556 17.4705 15.0555 16.116C15.0604 16.1049 15.0653 16.0938 15.0689 16.0827C15.3586 15.4122 15.4462 14.6603 15.3391 13.7848C15.2381 12.9674 15.0592 12.1797 14.8511 11.308C14.8 11.0907 14.7489 10.8733 14.6977 10.6548C14.5919 10.2029 14.4835 9.73615 14.3679 9.27683C14.2986 9.00149 14.1951 8.68417 13.9541 8.41252C13.7813 8.21867 13.5598 8.11249 13.3298 8.11249C13.1254 8.11249 12.9258 8.19521 12.753 8.35079C12.3599 8.70639 12.2613 9.17806 12.2211 9.54848C12.1883 9.84975 12.1919 10.1461 12.2187 10.4362C11.5566 9.30894 10.8934 8.18163 10.2313 7.05432C10.0707 6.78021 9.87594 6.58636 9.6374 6.46289C9.4731 6.37769 9.30272 6.33571 9.12869 6.33571C8.70517 6.33571 8.3498 6.59871 8.19768 6.98888C8.14778 6.90492 8.09788 6.81973 8.0492 6.73576C7.89829 6.48017 7.71817 6.29743 7.49911 6.18014C7.31899 6.08383 7.13644 6.0332 6.95754 6.0332Z" fill="white"/>
<path d="M12.461 0.262054C13.2009 0.657167 13.4967 1.35726 13.6208 2.1586C14.351 2.02154 14.962 1.90918 15.6922 1.77213C15.663 1.73138 15.6593 1.67952 15.624 1.63384C15.5729 1.5684 15.5218 1.4869 15.4707 1.39924C15.3465 1.18563 15.2236 0.934981 15.0934 0.78311C14.6869 0.32873 14.3169 0.0793145 13.4845 0.118826C13.3202 0.126234 13.1279 0.153398 12.9308 0.162041C12.8894 0.165745 12.7945 0.180562 12.7239 0.185501C12.5243 0.200318 12.5243 0.200318 12.4001 0.208961" fill="#444444"/>
</g>
<defs>
<clipPath id="clip0">
<rect width="19" height="19" fill="white"/>
</clipPath>
</defs>
</svg>
