<?xml version="1.0" encoding="utf-8"?>
<!-- Generator: Adobe Illustrator 23.0.1, SVG Export Plug-In . SVG Version: 6.00 Build 0)  -->
<svg version="1.1" id="Layer_1" xmlns="http://www.w3.org/2000/svg" xmlns:xlink="http://www.w3.org/1999/xlink" x="0px" y="0px"
	 viewBox="0 0 19 19" style="enable-background:new 0 0 19 19;" xml:space="preserve">
<style type="text/css">
	.st0{fill:#1CC6C6;}
</style>
<path class="st0" d="M12.6,1.9H3.2v15.2h12.5V4.8h-3.1V1.9z M3.2,0h10.5l4.2,3.8v13.3c0,0.5-0.2,1-0.6,1.3c-0.4,0.4-0.9,0.6-1.5,0.6
	H3.2c-0.6,0-1.1-0.2-1.5-0.6c-0.4-0.4-0.6-0.8-0.6-1.3V1.9c0-0.5,0.2-1,0.6-1.3C2.1,0.2,2.7,0,3.2,0z M5.3,6.5h4.2h4.2v4H5.3V6.5z
	 M5.3,12.4h8.4v1.9H5.3V12.4z"/>
</svg>
