<svg width="15" height="14" viewBox="0 0 15 14" fill="none" xmlns="http://www.w3.org/2000/svg">
<path d="M7.78802 0C3.90752 0 0.750488 3.1402 0.750488 7C0.750488 10.8598 3.90752 14 7.78802 14C11.6685 14 14.8255 10.8598 14.8255 7C14.8255 3.1402 11.6685 0 7.78802 0ZM7.78802 12.6C4.68376 12.6 2.15799 10.0877 2.15799 7C2.15799 3.9123 4.68376 1.4 7.78802 1.4C10.8923 1.4 13.418 3.9123 13.418 7C13.418 10.0877 10.8923 12.6 7.78802 12.6Z" fill="#CBCBCB"/>
<path d="M8.1232 3H6.78271V8H10.8042V6.33333H8.1232V3Z" fill="#CBCBCB"/>
</svg>
