<svg width="26" height="25" viewBox="0 0 26 25" fill="none" xmlns="http://www.w3.org/2000/svg">
<path d="M13.0472 24.7159C6.1805 24.7159 0.614258 19.1832 0.614258 12.3579C0.614258 5.53265 6.1805 0 13.0472 0C19.914 0 25.4802 5.53265 25.4802 12.3579C25.4802 19.1832 19.914 24.7159 13.0472 24.7159ZM6.84691 20.0891C8.60686 21.4876 10.794 22.2479 13.0472 22.2443C15.4965 22.2443 17.7382 21.3644 19.4714 19.9062C18.6616 19.0803 17.6935 18.4243 16.6243 17.9769C15.555 17.5294 14.4063 17.2996 13.2462 17.3011C12.0434 17.2997 10.8534 17.5469 9.75184 18.0268C8.65023 18.5067 7.661 19.209 6.84691 20.0891ZM5.11002 18.3145C6.15496 17.2122 7.41593 16.3344 8.81523 15.735C10.2145 15.1357 11.7225 14.8275 13.2462 14.8295C14.7153 14.8276 16.1704 15.1142 17.5278 15.6728C18.8852 16.2314 20.1182 17.051 21.156 18.0846C22.2204 16.5956 22.8489 14.8427 22.972 13.0202C23.095 11.1978 22.7076 9.37706 21.8529 7.76011C20.9982 6.14316 19.7095 4.79318 18.1298 3.85993C16.5501 2.92669 14.7412 2.44667 12.9038 2.47314C11.0663 2.4996 9.27216 3.03151 7.72035 4.00985C6.16854 4.98819 4.91975 6.37472 4.11252 8.01561C3.30528 9.6565 2.97117 11.4876 3.14725 13.3057C3.32333 15.1239 4.00271 16.858 5.11002 18.3157V18.3145ZM13.0472 13.5937C11.7283 13.5937 10.4633 13.0729 9.53066 12.1459C8.59801 11.2189 8.07405 9.96157 8.07405 8.65056C8.07405 7.33955 8.59801 6.08223 9.53066 5.1552C10.4633 4.22818 11.7283 3.70738 13.0472 3.70738C14.3662 3.70738 15.6312 4.22818 16.5638 5.1552C17.4965 6.08223 18.0204 7.33955 18.0204 8.65056C18.0204 9.96157 17.4965 11.2189 16.5638 12.1459C15.6312 13.0729 14.3662 13.5937 13.0472 13.5937ZM13.0472 11.1221C13.7067 11.1221 14.3392 10.8617 14.8055 10.3982C15.2719 9.93472 15.5338 9.30606 15.5338 8.65056C15.5338 7.99505 15.2719 7.36639 14.8055 6.90288C14.3392 6.43937 13.7067 6.17897 13.0472 6.17897C12.3878 6.17897 11.7553 6.43937 11.289 6.90288C10.8226 7.36639 10.5606 7.99505 10.5606 8.65056C10.5606 9.30606 10.8226 9.93472 11.289 10.3982C11.7553 10.8617 12.3878 11.1221 13.0472 11.1221Z" fill="#D5DDE0"/>
</svg>
