<?xml version="1.0" encoding="utf-8"?>
<!-- Generator: Adobe Illustrator 23.0.1, SVG Export Plug-In . SVG Version: 6.00 Build 0)  -->
<svg version="1.1" id="Layer_1" xmlns="http://www.w3.org/2000/svg" xmlns:xlink="http://www.w3.org/1999/xlink" x="0px" y="0px"
	 viewBox="0 0 19 19" style="enable-background:new 0 0 19 19;" xml:space="preserve">
<style type="text/css">
	.st0{fill:#FFFFFF;}
</style>
<path class="st0" d="M3.5,3C3.4,3,3.2,3,3.1,3.1C3,3.2,3,3.4,3,3.5v12c0,0.1,0,0.3,0.1,0.4C3.2,16,3.4,16,3.5,16h12
	c0.1,0,0.3,0,0.4-0.1c0.1-0.1,0.1-0.2,0.1-0.4v-12c0-0.1,0-0.3-0.1-0.4C15.8,3,15.6,3,15.5,3H3.5z M14.5,10v4.5H10V10H14.5z M9,14.5
	H4.5V10H9V14.5z M10,4.5h4.5V9H10V4.5z M4.5,4.5H9V9H4.5V4.5z M12,7.5c0.2,0.3,0.5,0.5,1,0.7c0.5,0.2,0.8,0.3,1,0.3V5h-3
	c0.1,0.6,0.3,1.1,0.4,1.4C11.5,6.7,11.7,7.1,12,7.5z M7,7.5c0.3-0.4,0.5-0.8,0.6-1.1C7.7,6.1,7.9,5.6,8,5H5v3.5c0.2,0,0.6-0.1,1-0.3
	C6.5,8,6.8,7.8,7,7.5z M13.5,11c-0.1,0.3-0.3,0.8-0.3,1.3C13.1,12.9,13,13.4,13,14h1v-3.5c-0.1,0-0.2,0-0.3,0.1
	C13.6,10.7,13.6,10.8,13.5,11z M5.5,11c-0.1-0.2-0.1-0.3-0.2-0.4c-0.1-0.1-0.2-0.1-0.3-0.1V14h1c0-0.6-0.1-1.1-0.2-1.7
	C5.8,11.8,5.6,11.3,5.5,11z"/>
</svg>
